<!--
SBD 1.0
Librería de íconos
-->

<svg xmlns="http://www.w3.org/2000/svg">

  <defs>

    <!-- Circle -->
    <symbol id="circle" viewBox="0 0 96 96">
      <path d="M48 8C40.0888 8 32.3552 10.346 25.7772 14.7412C19.1992 19.1365 14.0723 25.3836 11.0448 32.6927C8.01733 40.0017 7.2252 48.0444 8.76861 55.8036C10.312 63.5629 14.1216 70.6902 19.7157 76.2843C25.3098 81.8784 32.4372 85.688 40.1964 87.2314C47.9556 88.7748 55.9983 87.9827 63.3074 84.9552C70.6164 81.9277 76.8635 76.8008 81.2588 70.2228C85.6541 63.6448 88 55.9113 88 48C88 42.7471 86.9654 37.5457 84.9552 32.6927C82.945 27.8396 79.9986 23.4301 76.2843 19.7157C72.5699 16.0014 68.1604 13.055 63.3074 11.0448C58.4543 9.03463 53.2529 8 48 8ZM48 80C41.671 80 35.4841 78.1232 30.2218 74.607C24.9594 71.0908 20.8579 66.0931 18.4359 60.2459C16.0139 54.3986 15.3802 47.9645 16.6149 41.7571C17.8496 35.5497 20.8973 29.8479 25.3726 25.3726C29.8479 20.8973 35.5497 17.8496 41.7571 16.6149C47.9645 15.3801 54.3987 16.0139 60.2459 18.4359C66.0931 20.8579 71.0908 24.9594 74.607 30.2218C78.1232 35.4841 80 41.671 80 48C80 56.4869 76.6286 64.6263 70.6274 70.6274C64.6263 76.6286 56.4869 80 48 80Z" fill="currentColor"/>
    </symbol>


    <!-- Cloud Data -->
    <symbol id="cloud-data" viewBox="0 0 96 96">
      <path d="M84 74H59.28C58.6827 72.3224 57.7196 70.7988 56.4604 69.5396C55.2012 68.2805 53.6776 67.3173 52 66.72V54H64.68C68.9154 54.1392 73.0549 52.7207 76.3149 50.0132C79.5748 47.3056 81.729 43.4969 82.3697 39.3079C83.0104 35.1189 82.093 30.8403 79.7914 27.2822C77.4897 23.724 73.9634 21.1332 69.88 20C67.7409 15.2603 64.1203 11.3436 59.563 8.83928C55.0057 6.33496 49.7583 5.37853 44.6106 6.11392C39.4628 6.84932 34.6931 9.23676 31.0193 12.917C27.3455 16.5971 24.9664 21.371 24.24 26.52C20.9848 27.4329 18.1698 29.4928 16.3151 32.3194C14.4603 35.146 13.691 38.5483 14.1493 41.8979C14.6077 45.2475 16.2626 48.3181 18.8085 50.5426C21.3544 52.7671 24.6192 53.9952 28 54H44V66.72C42.3224 67.3173 40.7988 68.2805 39.5396 69.5396C38.2804 70.7988 37.3173 72.3224 36.72 74H12C10.9391 74 9.92172 74.4215 9.17157 75.1716C8.42143 75.9218 8 76.9392 8 78C8 79.0609 8.42143 80.0783 9.17157 80.8285C9.92172 81.5786 10.9391 82 12 82H36.72C37.5608 84.3167 39.0945 86.3182 41.1127 87.7327C43.1308 89.1471 45.5355 89.9059 48 89.9059C50.4645 89.9059 52.8692 89.1471 54.8873 87.7327C56.9055 86.3182 58.4392 84.3167 59.28 82H84C85.0609 82 86.0783 81.5786 86.8284 80.8285C87.5786 80.0783 88 79.0609 88 78C88 76.9392 87.5786 75.9218 86.8284 75.1716C86.0783 74.4215 85.0609 74 84 74ZM28 46C26.4087 46 24.8826 45.3679 23.7574 44.2427C22.6321 43.1175 22 41.5913 22 40C22 38.4087 22.6321 36.8826 23.7574 35.7574C24.8826 34.6322 26.4087 34 28 34C29.0609 34 30.0783 33.5786 30.8284 32.8285C31.5786 32.0783 32 31.0609 32 30C31.9895 26.2021 33.3304 22.5244 35.7828 19.6244C38.2351 16.7244 41.6391 14.7914 45.386 14.1709C49.1329 13.5504 52.9783 14.283 56.2345 16.2377C59.4908 18.1923 61.9456 21.2415 63.16 24.84C63.3886 25.5274 63.7997 26.1398 64.3492 26.6118C64.8987 27.0838 65.566 27.3977 66.28 27.52C68.4451 27.8811 70.4109 29.0011 71.8255 30.6795C73.24 32.3579 74.0109 34.4851 74 36.68C73.9895 39.1486 73.0042 41.5131 71.2586 43.2586C69.513 45.0042 67.1486 45.9895 64.68 46H28ZM48 82C47.2089 82 46.4355 81.7654 45.7777 81.3259C45.1199 80.8864 44.6072 80.2617 44.3045 79.5308C44.0017 78.7999 43.9225 77.9956 44.0769 77.2197C44.2312 76.4437 44.6122 75.731 45.1716 75.1716C45.731 74.6122 46.4437 74.2312 47.2196 74.0769C47.9956 73.9226 48.7998 74.0018 49.5307 74.3045C50.2616 74.6073 50.8864 75.12 51.3259 75.7778C51.7654 76.4356 52 77.2089 52 78C52 79.0609 51.5786 80.0783 50.8284 80.8285C50.0783 81.5786 49.0609 82 48 82Z" fill="currentColor"/>
    </symbol>

    <!-- Color Palette -->
    <symbol id="color-palette" viewBox="0 0 96 96">
      <path d="M78.1602 20.32C74.1496 16.3377 69.384 13.1965 64.1431 11.0809C58.9021 8.96532 53.2914 7.91784 47.6402 7.99996C37.0315 7.97344 26.8468 12.1623 19.3266 19.645C11.8064 27.1277 7.56669 37.2913 7.54016 47.9C7.51364 58.5086 11.7025 68.6933 19.1852 76.2135C26.6679 83.7337 36.8315 87.9734 47.4402 88C49.7261 88.0388 51.9603 87.3175 53.792 85.9492C55.6236 84.5809 56.949 82.6431 57.5602 80.44C57.9497 78.849 57.9457 77.187 57.5484 75.5979C57.1511 74.0088 56.3726 72.5405 55.2802 71.32C55.0276 71.0325 54.8628 70.6786 54.8053 70.3003C54.7478 69.9219 54.8001 69.535 54.9559 69.1855C55.1117 68.836 55.3645 68.5385 55.6843 68.3284C56.0041 68.1182 56.3775 68.0043 56.7602 68H63.3602C69.572 68.029 75.5648 65.7069 80.1352 61.5C84.7057 57.2931 87.5154 51.5129 88.0002 45.32C88.149 40.7024 87.3529 36.1031 85.6609 31.8042C83.9688 27.5053 81.4164 23.5973 78.1602 20.32ZM63.5202 60H56.9202C54.9927 59.9891 53.1034 60.5377 51.4816 61.5793C49.8597 62.6209 48.5749 64.1107 47.7831 65.868C46.9912 67.6254 46.7263 69.5747 47.0204 71.4797C47.3146 73.3846 48.1551 75.1633 49.4402 76.6C49.6904 76.8524 49.8672 77.1682 49.9518 77.5134C50.0363 77.8587 50.0254 78.2204 49.9202 78.56C49.7202 79.4 48.8002 79.92 47.5602 80C43.0175 79.9417 38.5392 78.9169 34.4233 76.9936C30.3074 75.0703 26.6482 72.2927 23.6891 68.8455C20.73 65.3982 18.5389 61.3604 17.2614 57.0007C15.9839 52.6409 15.6494 48.0591 16.2802 43.56C17.4208 35.9998 21.1984 29.0865 26.9447 24.0429C32.691 18.9993 40.0359 16.1504 47.6802 16H48.0002C52.5235 15.9407 57.013 16.788 61.2036 18.4917C65.3943 20.1955 69.2013 22.7212 72.4002 25.92C74.8962 28.4176 76.8573 31.3974 78.164 34.6777C79.4706 37.9581 80.0954 41.4702 80.0002 45C79.586 49.0922 77.6744 52.8871 74.6326 55.6558C71.5908 58.4244 67.6332 59.9716 63.5202 60Z" fill="currentColor"/>
      <path d="M48 32C51.3137 32 54 29.3137 54 26C54 22.6863 51.3137 20 48 20C44.6863 20 42 22.6863 42 26C42 29.3137 44.6863 32 48 32Z" fill="currentColor"/>
      <path d="M60.9998 28.8C59.9724 29.3935 59.1441 30.2782 58.6195 31.3423C58.0949 32.4064 57.8975 33.6021 58.0523 34.7784C58.2071 35.9546 58.7071 37.0586 59.4892 37.9507C60.2713 38.8429 61.3003 39.4831 62.4462 39.7905C63.5921 40.098 64.8034 40.0588 65.927 39.678C67.0506 39.2971 68.0361 38.5917 68.7589 37.6509C69.4817 36.7101 69.9094 35.5761 69.9878 34.3923C70.0663 33.2085 69.7921 32.028 69.1997 31C68.8061 30.3168 68.2817 29.7179 67.6564 29.2375C67.0311 28.7572 66.3173 28.4047 65.5557 28.2004C64.7942 27.9961 63.9998 27.9439 63.2181 28.0468C62.4363 28.1497 61.6825 28.4056 60.9998 28.8Z" fill="currentColor"/>
      <path d="M34.9998 28.8C33.9719 28.2077 32.7914 27.9335 31.6076 28.0119C30.4238 28.0904 29.2898 28.518 28.349 29.2408C27.4082 29.9636 26.7028 30.9491 26.3219 32.0728C25.9411 33.1964 25.9019 34.4077 26.2093 35.5536C26.5168 36.6994 27.157 37.7285 28.0491 38.5105C28.9413 39.2926 30.0452 39.7927 31.2215 39.9475C32.3978 40.1023 33.5935 39.9049 34.6576 39.3803C35.7217 38.8556 36.6064 38.0273 37.1998 37C37.5942 36.3172 37.8502 35.5634 37.9531 34.7817C38.056 33.9999 38.0038 33.2056 37.7995 32.444C37.5951 31.6825 37.2427 30.9686 36.7623 30.3434C36.2819 29.7181 35.683 29.1937 34.9998 28.8Z" fill="currentColor"/>
      <path d="M24.64 45.04C23.6559 45.7045 22.891 46.6461 22.4424 47.7455C21.9937 48.8449 21.8813 50.0528 22.1195 51.2161C22.3577 52.3794 22.9357 53.4459 23.7804 54.2806C24.6251 55.1152 25.6984 55.6804 26.8645 55.9046C28.0306 56.1289 29.237 56.0021 30.331 55.5403C31.4249 55.0785 32.3573 54.3024 33.01 53.3104C33.6627 52.3184 34.0063 51.1551 33.9974 49.9676C33.9885 48.7802 33.6275 47.6221 32.96 46.64C32.5215 45.9854 31.9576 45.4242 31.3008 44.989C30.6441 44.5537 29.9075 44.253 29.1338 44.1042C28.3601 43.9554 27.5645 43.9615 26.7932 44.1221C26.0218 44.2828 25.29 44.5947 24.64 45.04Z" fill="currentColor"/>
    </symbol>

    <!-- Puzzle Piece -->
    <symbol id="puzzle-piece" viewBox="0 0 96 96">
      <path d="M68 88H20C16.8174 88 13.7652 86.7357 11.5147 84.4853C9.26428 82.2348 8 79.1826 8 76V36C8 32.8174 9.26428 29.7651 11.5147 27.5147C13.7652 25.2643 16.8174 24 20 24H24C24.0673 20.6105 25.2094 17.3301 27.2617 14.6317C29.3139 11.9333 32.1702 9.95658 35.4186 8.98652C38.6669 8.01646 42.1394 8.10325 45.3353 9.23437C48.5311 10.3655 51.2851 12.4825 53.2 15.28C54.9938 17.8366 55.9701 20.877 56 24H68C69.0609 24 70.0783 24.4214 70.8284 25.1716C71.5786 25.9217 72 26.9391 72 28V40C75.3894 40.0673 78.6699 41.2094 81.3683 43.2616C84.0666 45.3139 86.0434 48.1702 87.0135 51.4185C87.9835 54.6669 87.8967 58.1394 86.7656 61.3353C85.6345 64.5311 83.5175 67.2851 80.72 69.2C78.1634 70.9937 75.123 71.97 72 72V84C72 85.0609 71.5786 86.0783 70.8284 86.8284C70.0783 87.5786 69.0609 88 68 88ZM20 32C18.9391 32 17.9217 32.4214 17.1716 33.1716C16.4214 33.9217 16 34.9391 16 36V76C16 77.0609 16.4214 78.0783 17.1716 78.8284C17.9217 79.5786 18.9391 80 20 80H64V67.28C63.9966 66.6386 64.1474 66.0058 64.4398 65.435C64.7322 64.8641 65.1575 64.372 65.68 64C66.2009 63.6285 66.8033 63.3874 67.4367 63.2969C68.0701 63.2065 68.7159 63.2692 69.32 63.48C70.46 63.945 71.7015 64.1048 72.9221 63.9434C74.1426 63.7821 75.3 63.3053 76.28 62.56C77.2554 61.9652 78.0921 61.1683 78.7338 60.223C79.3754 59.2778 79.8072 58.2061 80 57.08C80.1543 55.9442 80.0627 54.7885 79.7314 53.6913C79.4001 52.594 78.837 51.5807 78.08 50.72C77.0563 49.4764 75.6621 48.5924 74.1008 48.1966C72.5394 47.8009 70.8925 47.9142 69.4 48.52C68.7959 48.7307 68.1501 48.7935 67.5167 48.703C66.8833 48.6125 66.2809 48.3715 65.76 48C65.2375 47.628 64.8122 47.1358 64.5198 46.565C64.2274 45.9941 64.0766 45.3613 64.08 44.72V32H51.28C50.6226 32.0372 49.9662 31.9116 49.369 31.6343C48.7718 31.357 48.2523 30.9365 47.8566 30.4102C47.4609 29.8839 47.2012 29.2681 47.1006 28.6174C47 27.9667 47.0617 27.3012 47.28 26.68C47.745 25.54 47.9048 24.2985 47.7434 23.0779C47.5821 21.8574 47.1053 20.7 46.36 19.72C45.7694 18.7166 44.9606 17.8591 43.9936 17.2108C43.0265 16.5625 41.926 16.1401 40.7735 15.9749C39.6211 15.8097 38.4462 15.9059 37.336 16.2565C36.2258 16.6071 35.2086 17.2029 34.36 18C33.5719 18.7816 32.9551 19.7187 32.5488 20.7517C32.1425 21.7847 31.9556 22.8909 32 24C32.0093 24.9175 32.1855 25.8256 32.52 26.68C32.7315 27.2849 32.7945 27.9317 32.7039 28.566C32.6132 29.2003 32.3715 29.8036 31.999 30.325C31.6266 30.8464 31.1343 31.2707 30.5637 31.5622C29.9931 31.8537 29.3608 32.0038 28.72 32H20Z" fill="currentColor"/>
    </symbol>

    <symbol id="soft4pilot" fill="none" viewBox="0 0 96 96">
      <path d="M34.4836 52.0792L92.9624 80.5383M55.0791 52.8734L78.9139 64.4727M35.6137 80.4834C53.6514 80.4834 68.2736 65.9379 68.2736 47.9956C68.2736 30.053 53.6514 15.5077 35.6137 15.5077C17.5762 15.5077 2.95386 30.053 2.95386 47.9956C2.95386 65.9379 17.5762 80.4834 35.6137 80.4834Z" stroke="currentColor" stroke-width="5.04127" stroke-linecap="round"/>
    </symbol>

  </defs>

</svg>
