<!--
SBD 1.0
Librería de íconos
-->

<svg xmlns="http://www.w3.org/2000/svg">

  <defs>

    <!-- Soft4pilot -->
    <symbol id="soft4pilot" viewBox="0 0 96 96" fill="none">
      <path d="M34.4836 52.0792L92.9624 80.5383M55.0791 52.8734L78.9139 64.4727M35.6137 80.4834C53.6514 80.4834 68.2736 65.9379 68.2736 47.9956C68.2736 30.053 53.6514 15.5077 35.6137 15.5077C17.5762 15.5077 2.95386 30.053 2.95386 47.9956C2.95386 65.9379 17.5762 80.4834 35.6137 80.4834Z" stroke="currentColor" stroke-width="5.04127" stroke-linecap="round"/>
    </symbol>

    <!-- GitHub -->
    <symbol id="github" viewBox="0 0 96 96" fill="none">
      <path d="M48 1.18799C21.48 1.18799 0 22.68 0 49.188C0 70.4 13.752 88.388 32.82 94.728C35.22 95.18 36.1 93.696 36.1 92.42C36.1 91.28 36.06 88.26 36.04 84.26C22.688 87.156 19.872 77.82 19.872 77.82C17.688 72.28 14.532 70.8 14.532 70.8C10.184 67.824 14.868 67.884 14.868 67.884C19.688 68.22 22.22 72.828 22.22 72.828C26.5 80.168 33.456 78.048 36.2 76.82C36.632 73.716 37.868 71.6 39.24 70.4C28.58 69.2 17.376 65.072 17.376 46.68C17.376 41.44 19.236 37.16 22.316 33.8C21.776 32.588 20.156 27.708 22.736 21.096C22.736 21.096 26.756 19.808 35.936 26.016C39.776 24.948 43.856 24.42 47.936 24.396C52.016 24.42 56.096 24.948 59.936 26.016C69.056 19.808 73.076 21.096 73.076 21.096C75.656 27.708 74.036 32.588 73.556 33.8C76.616 37.16 78.476 41.44 78.476 46.68C78.476 65.12 67.256 69.18 56.576 70.36C58.256 71.8 59.816 74.744 59.816 79.24C59.816 85.664 59.756 90.824 59.756 92.384C59.756 93.644 60.596 95.144 63.056 94.664C82.26 88.368 96 70.368 96 49.188C96 22.68 74.508 1.18799 48 1.18799Z" fill="currentColor"/>
    </symbol>

    <!-- GraphQL -->
    <symbol id="graphql" viewBox="0 0 96 96" fill="none">
      <path d="M56.2039 11.004L75.9439 22.404C79.2079 18.968 84.6359 18.832 88.0719 22.096C88.6639 22.656 89.1679 23.3 89.5799 24.004C91.9359 28.116 90.5079 33.36 86.3959 35.716C85.6999 36.116 84.9519 36.416 84.1639 36.608V59.404C88.7479 60.496 91.5799 65.096 90.4839 69.68C90.2919 70.496 89.9759 71.28 89.5559 72.004C87.1879 76.096 81.9519 77.5 77.8479 75.132C77.0639 74.68 76.3479 74.096 75.7439 73.416L56.1239 84.744C57.6119 89.24 55.1719 94.084 50.6799 95.568C49.8119 95.852 48.9119 96 47.9999 96C43.2759 96.004 39.4439 92.18 39.4399 87.456C39.4399 86.636 39.5559 85.816 39.7919 85.02L20.0479 73.632C16.7839 77.048 11.3639 77.18 7.9439 73.912C4.5279 70.648 4.3999 65.228 7.6639 61.808C8.7959 60.62 10.2479 59.784 11.8399 59.396L11.8439 36.6C7.2439 35.496 4.4119 30.868 5.5199 26.264C5.7079 25.472 6.0119 24.708 6.4159 24C8.7839 19.904 14.0239 18.504 18.1239 20.872C18.8319 21.276 19.4799 21.784 20.0439 22.38L39.7959 10.98C38.4519 6.448 41.0399 1.692 45.5599 0.352003C46.3479 0.116003 47.1759 3.13849e-06 47.9999 3.13849e-06C52.7239 -0.00399686 56.5559 3.816 56.5599 8.536C56.5639 9.372 56.4399 10.208 56.2039 11.004ZM54.1439 14.512C54.0679 14.596 53.9959 14.668 53.9119 14.744L79.7559 59.504C79.8599 59.468 79.9799 59.44 80.0839 59.412V36.584C75.5039 35.452 72.7159 30.816 73.8519 26.232C73.8759 26.136 73.8999 26.036 73.9279 25.944L54.1439 14.512ZM42.0839 14.748L41.8439 14.508L22.0599 25.916C23.3679 30.456 20.7519 35.188 16.2159 36.496C16.1119 36.528 16.0119 36.552 15.9119 36.58V59.412L16.2479 59.504L42.0919 14.744L42.0839 14.748ZM50.3879 16.776C48.8279 17.224 47.1759 17.224 45.6199 16.776L19.7799 61.532C20.9559 62.664 21.7879 64.112 22.1799 65.696H73.8239C74.2119 64.104 75.0519 62.652 76.2359 61.52L50.3879 16.776ZM54.3319 81.684L73.9839 70.332C73.9239 70.144 73.8759 69.956 73.8319 69.764H22.1679L22.0839 70.096L41.8399 81.504C43.3919 79.888 45.5759 78.892 47.9999 78.892C50.5079 78.892 52.7599 79.968 54.3319 81.684Z" fill="currentColor"/>
    </symbol>

    <!-- React -->
    <symbol id="react" viewBox="0 0 96 96" fill="none">
      <path d="M48 39.4441C46.8764 39.4441 45.7638 39.6654 44.7258 40.0954C43.6877 40.5253 42.7445 41.1556 41.95 41.9501C41.1555 42.7446 40.5253 43.6878 40.0953 44.7258C39.6653 45.7639 39.444 46.8765 39.444 48.0001C39.444 49.1237 39.6653 50.2362 40.0953 51.2743C40.5253 52.3124 41.1555 53.2556 41.95 54.0501C42.7445 54.8446 43.6877 55.4748 44.7258 55.9048C45.7638 56.3348 46.8764 56.5561 48 56.5561C49.1236 56.5561 50.2362 56.3348 51.2742 55.9048C52.3123 55.4748 53.2555 54.8446 54.05 54.0501C54.8445 53.2556 55.4747 52.3124 55.9047 51.2743C56.3347 50.2362 56.556 49.1237 56.556 48.0001C56.556 46.8765 56.3347 45.7639 55.9047 44.7258C55.4747 43.6878 54.8445 42.7446 54.05 41.9501C53.2555 41.1556 52.3123 40.5253 51.2742 40.0954C50.2362 39.6654 49.1236 39.4441 48 39.4441ZM24.032 65.0201L22.144 64.5401C8.072 60.9841 0 54.9481 0 47.9841C0 41.0201 8.072 34.9841 22.144 31.4281L24.032 30.9521L24.564 32.8241C25.9895 37.7349 27.8129 42.5214 30.016 47.1361L30.42 47.9881L30.016 48.8401C27.8092 53.4531 25.9857 58.2399 24.564 63.1521L24.032 65.0201ZM21.268 35.8001C10.572 38.8041 4.008 43.4001 4.008 47.9841C4.008 52.5641 10.572 57.1601 21.268 60.1681C22.5761 56.0078 24.1555 51.9377 25.996 47.9841C24.1534 44.0313 22.5739 39.9611 21.268 35.8001ZM71.968 65.0201L71.436 63.1441C70.0119 58.2335 68.1871 53.4481 65.98 48.8361L65.576 47.9841L65.98 47.1321C68.1863 42.5183 70.011 37.7317 71.436 32.8201L71.968 30.9481L73.86 31.4241C87.928 34.9801 96 41.0161 96 47.9841C96 54.9521 87.928 60.9841 73.86 64.5401L71.968 65.0201ZM70.004 47.9841C71.924 52.1401 73.512 56.2241 74.732 60.1681C85.432 57.1601 91.992 52.5641 91.992 47.9841C91.992 43.4001 85.428 38.8081 74.732 35.8001C73.4257 39.961 71.8462 44.0311 70.004 47.9841ZM21.24 35.7801L20.708 33.9121C16.752 19.9681 17.952 9.97606 24 6.48806C29.932 3.06406 39.456 7.10806 49.436 17.3521L50.796 18.7481L49.436 20.1441C45.8898 23.8305 42.6498 27.7996 39.748 32.0121L39.208 32.7841L38.268 32.8641C33.1636 33.2665 28.1003 34.0825 23.128 35.3041L21.24 35.7801ZM28.824 9.26006C27.752 9.26006 26.804 9.49206 26.004 9.95206C22.028 12.2441 21.324 20.2121 24.064 30.9641C28.3265 30.0158 32.6464 29.3464 36.996 28.9601C39.5057 25.3916 42.2476 21.9922 45.204 18.7841C38.964 12.7081 33.056 9.26006 28.824 9.26006ZM67.18 90.7081C67.176 90.7081 67.176 90.7081 67.18 90.7081C61.48 90.7081 54.16 86.4161 46.564 78.6161L45.204 77.2201L46.564 75.8241C50.1093 72.1365 53.348 68.166 56.248 63.9521L56.788 63.1801L57.724 63.1001C62.831 62.6999 67.897 61.8852 72.872 60.6641L74.76 60.1881L75.296 62.0601C79.244 75.9961 78.048 85.9921 72 89.4761C70.5309 90.3067 68.8675 90.7319 67.18 90.7081ZM50.796 77.1841C57.036 83.2601 62.944 86.7081 67.176 86.7081H67.18C68.248 86.7081 69.2 86.4761 69.996 86.0161C73.972 83.7241 74.68 75.7521 71.936 65.0001C67.6723 65.9497 63.3511 66.6191 59 67.0041C56.4933 70.575 53.7527 73.9758 50.796 77.1841ZM74.76 35.7801L72.872 35.3041C67.8977 34.0789 62.8314 33.2629 57.724 32.8641L56.788 32.7841L56.248 32.0121C53.3495 27.7983 50.1106 23.829 46.564 20.1441L45.204 18.7481L46.564 17.3521C56.54 7.11206 66.06 3.06806 72 6.48806C78.048 9.97606 79.248 19.9681 75.296 33.9081L74.76 35.7801ZM59 28.9601C63.568 29.3761 67.908 30.0521 71.936 30.9641C74.68 20.2121 73.972 12.2441 69.996 9.95206C66.044 7.66806 58.616 11.1681 50.796 18.7841C53.751 21.9924 56.4916 25.3917 59 28.9601ZM28.824 90.7081C27.1352 90.7326 25.4702 90.3074 24 89.4761C17.952 85.9921 16.752 76.0001 20.708 62.0601L21.236 60.1881L23.124 60.6641C27.744 61.8281 32.84 62.6481 38.264 63.1001L39.204 63.1801L39.74 63.9521C42.6422 68.1654 45.8822 72.1358 49.428 75.8241L50.788 77.2201L49.428 78.6161C41.836 86.4161 34.516 90.7081 28.824 90.7081ZM24.064 65.0001C21.32 75.7521 22.028 83.7241 26.004 86.0161C29.952 88.2681 37.376 84.7961 45.204 77.1841C42.2488 73.9735 39.5069 70.5729 36.996 67.0041C32.6462 66.6194 28.3262 65.95 24.064 65.0001ZM48 67.5121C44.708 67.5121 41.324 67.3681 37.936 67.0881L36.996 67.0081L36.456 66.2361C34.5396 63.4825 32.7381 60.6507 31.056 57.7481C29.3789 54.8431 27.8229 51.8699 26.392 48.8361L25.992 47.9841L26.392 47.1321C27.8227 44.0981 29.3787 41.1249 31.056 38.2201C32.712 35.3561 34.532 32.5001 36.456 29.7321L36.996 28.9601L37.936 28.8801C44.6346 28.3121 51.3694 28.3121 58.068 28.8801L59.004 28.9601L59.54 29.7321C63.3767 35.2403 66.7445 41.0607 69.608 47.1321L70.012 47.9841L69.608 48.8361C66.7513 54.911 63.3832 60.732 59.54 66.2361L59.004 67.0081L58.068 67.0881C54.68 67.3681 51.292 67.5121 48 67.5121ZM39.212 63.1761C45.132 63.6201 50.868 63.6201 56.792 63.1761C60.0993 58.3411 63.0357 53.2626 65.576 47.9841C63.0402 42.7024 60.1022 37.6234 56.788 32.7921C50.9377 32.3481 45.0623 32.3481 39.212 32.7921C35.8963 37.6225 32.9583 42.7016 30.424 47.9841C32.967 53.2619 35.9047 58.3403 39.212 63.1761Z" fill="currentColor"/>
    </symbol>

    <!-- Storybook -->
    <symbol id="storybook" viewBox="0 0 96 96" fill="none">
      <path d="M65.3601 0.959937L64.8801 11.7999C64.8743 11.937 64.9077 12.073 64.9766 12.1917C65.0454 12.3104 65.1468 12.407 65.2687 12.47C65.3905 12.5331 65.5279 12.56 65.6646 12.5476C65.8013 12.5351 65.9316 12.4839 66.0401 12.3999L70.2801 9.19993L73.8801 11.9999C73.9858 12.0708 74.1084 12.1124 74.2354 12.1205C74.3624 12.1286 74.4893 12.1028 74.6031 12.0459C74.7169 11.989 74.8136 11.903 74.8834 11.7965C74.9531 11.6901 74.9934 11.567 75.0001 11.4399L74.6001 0.399937L79.9201 -6.2475e-05C80.5768 -0.0439442 81.2356 0.0477112 81.8554 0.269208C82.4752 0.490704 83.0428 0.837308 83.523 1.28748C84.0032 1.73765 84.3857 2.28177 84.6467 2.88602C84.9076 3.49027 85.0416 4.14174 85.0401 4.79994V91.1999C85.0409 91.851 84.9093 92.4954 84.6532 93.094C84.3971 93.6926 84.0219 94.2328 83.5504 94.6818C83.079 95.1308 82.5211 95.4792 81.9108 95.7058C81.3004 95.9324 80.6503 96.0325 80.0001 95.9999L15.6001 93.1199C14.3892 93.0701 13.242 92.564 12.3888 91.7034C11.5355 90.8427 11.0395 89.6912 11.0001 88.4799L8.00008 9.27993C7.96222 8.64935 8.04921 8.0175 8.25605 7.4206C8.46289 6.8237 8.78553 6.27351 9.20545 5.80156C9.62537 5.32961 10.1343 4.9452 10.7031 4.67035C11.2719 4.39551 11.8894 4.23565 12.5201 4.19994L65.3201 0.879937L65.3601 0.959937ZM53.0801 37.1999C53.0801 39.0799 65.7201 38.1599 67.4401 36.8799C67.4401 24.0799 60.5601 17.3199 48.0001 17.3199C35.4001 17.3199 28.4001 24.1999 28.4001 34.4799C28.4001 52.2799 52.4001 52.5999 52.4001 62.3199C52.4001 65.1199 51.1201 66.7199 48.2001 66.7199C44.3601 66.7199 42.8001 64.7599 43.0001 58.0799C43.0001 56.6399 28.4001 56.1599 27.9201 58.0799C26.8401 74.1999 36.8401 78.8799 48.3201 78.8799C59.4801 78.8799 68.2001 72.9199 68.2001 62.1599C68.2001 43.0799 43.8001 43.5999 43.8001 34.1599C43.8001 30.2799 46.6801 29.7599 48.3201 29.7599C50.1201 29.7599 53.3201 30.0399 53.0801 37.2399V37.1999Z" fill="currentColor"/>
    </symbol>

  </defs>

</svg>
